<?xml version="1.0" encoding="UTF-8"?>
<svg width="104px" height="34px" viewBox="0 0 104 34" version="1.1" xmlns="http://www.w3.org/2000/svg" xmlns:xlink="http://www.w3.org/1999/xlink">
    <title>branding/two-lines-black</title>
    <g id="Page-1" stroke="none" stroke-width="1" fill="none" fill-rule="evenodd">
        <g id="Group" fill="#000000" fill-rule="nonzero">
            <g id="branding/two-lines-black">
                <path d="M17.4749644,16.0817518 L17.4749644,4.40759124 L20.6567221,4.40759124 L20.6567221,1.11182482 L10.4197625,1.11182482 L10.4197625,4.40759124 L13.6015202,4.40759124 L13.6015202,16.0817518 L17.4749644,16.0817518 Z M25.0143468,16.0817518 L25.0143468,9.90715328 L30.6071259,9.90715328 L30.6071259,16.0817518 L34.4805701,16.0817518 L34.4805701,1.11182482 L30.6071259,1.11182482 L30.6071259,6.88934307 L25.0143468,6.88934307 L25.0143468,1.11182482 L21.1409026,1.11182482 L21.1409026,16.0817518 L25.0143468,16.0817518 Z M44.8657482,0.317664234 L44.8657482,0 L36.3876485,0 L36.3876485,0.317664234 L44.8657482,0.317664234 Z M44.8459857,16.0817518 L44.8459857,12.7859854 L40.2413302,12.7859854 L40.2413302,10.2049635 L44.5890736,10.2049635 L44.5890736,6.90919708 L40.2413302,6.90919708 L40.2413302,4.40759124 L44.8459857,4.40759124 L44.8459857,1.11182482 L36.367886,1.11182482 L36.367886,16.0817518 L44.8459857,16.0817518 Z M57.0097862,0.317664234 L57.0097862,0 L48.5316865,0 L48.5316865,0.317664234 L57.0097862,0.317664234 Z M49.1047981,16.0817518 L49.9941093,13.4808759 L55.527601,13.4808759 L56.4169121,16.0817518 L60.5472684,16.0817518 L54.8754394,1.11182482 L50.6462708,1.11182482 L44.9744418,16.0817518 L49.1047981,16.0817518 Z M54.4999525,10.5226277 L51.0217577,10.5226277 L52.7608551,5.53927007 L54.4999525,10.5226277 Z M66.6835154,16.0817518 L66.6835154,4.40759124 L69.8652732,4.40759124 L69.8652732,1.11182482 L59.6283135,1.11182482 L59.6283135,4.40759124 L62.8100713,4.40759124 L62.8100713,16.0817518 L66.6835154,16.0817518 Z M74.2228979,16.0817518 L74.2228979,10.3240876 L77.9184798,16.0817518 L82.7405226,16.0817518 L78.0568171,9.94686131 C80.1911639,9.45051095 81.2978622,8.0210219 81.2978622,5.73781022 C81.2978622,4.46715328 80.8828504,3.33547445 80.0923515,2.48175182 C79.2820903,1.6280292 78.0370546,1.11182482 76.3770071,1.11182482 L70.3494537,1.11182482 L70.3494537,16.0817518 L74.2228979,16.0817518 Z M74.9541093,7.80262774 L74.2228979,7.80262774 L74.2228979,4.10978102 L74.9541093,4.10978102 C76.4758195,4.10978102 77.3256057,4.7649635 77.3256057,5.95620438 C77.3256057,7.14744526 76.4758195,7.80262774 74.9541093,7.80262774 Z M91.6039905,16.0817518 L91.6039905,12.7859854 L86.9993349,12.7859854 L86.9993349,10.2049635 L91.3470784,10.2049635 L91.3470784,6.90919708 L86.9993349,6.90919708 L86.9993349,4.40759124 L91.6039905,4.40759124 L91.6039905,1.11182482 L83.1258907,1.11182482 L83.1258907,16.0817518 L91.6039905,16.0817518 Z M3.87344418,33.4540146 L3.87344418,28.4905109 L6.16589074,28.4905109 C9.50574822,28.4905109 11.343658,26.6639416 11.343658,23.4872993 C11.343658,20.3106569 9.50574822,18.4840876 6.16589074,18.4840876 L9.8294558e-14,18.4840876 L9.8294558e-14,33.4540146 L3.87344418,33.4540146 Z M5.15800475,25.3535766 L3.87344418,25.3535766 L3.87344418,21.6210219 L5.15800475,21.6210219 C6.58090261,21.6210219 7.29235154,22.2364964 7.29235154,23.4872993 C7.29235154,24.7381022 6.58090261,25.3535766 5.15800475,25.3535766 Z M16.0372447,33.4540146 L16.0372447,27.6963504 L19.7328266,33.4540146 L24.5548694,33.4540146 L19.8711639,27.3191241 C22.0055107,26.8227737 23.112209,25.3932847 23.112209,23.110073 C23.112209,21.8394161 22.6971971,20.7077372 21.9066983,19.8540146 C21.0964371,19.000292 19.8514014,18.4840876 18.1913539,18.4840876 L12.1638005,18.4840876 L12.1638005,33.4540146 L16.0372447,33.4540146 Z M16.7684561,25.1748905 L16.0372447,25.1748905 L16.0372447,21.4820438 L16.7684561,21.4820438 C18.2901663,21.4820438 19.1399525,22.1372263 19.1399525,23.3284672 C19.1399525,24.519708 18.2901663,25.1748905 16.7684561,25.1748905 Z M32.2325891,33.8709489 C34.623848,33.8709489 36.7186698,33.0172263 38.1810926,31.5877372 C39.6435154,30.1582482 40.4933017,28.1927007 40.4933017,25.9690511 C40.4933017,23.7454015 39.6435154,21.779854 38.1810926,20.350365 C36.7186698,18.9208759 34.623848,18.0671533 32.2325891,18.0671533 C29.8018052,18.0671533 27.7465083,18.9208759 26.303848,20.350365 C24.8611876,21.779854 23.991639,23.7454015 23.991639,25.9690511 C23.991639,28.1927007 24.8611876,30.1582482 26.303848,31.5877372 C27.7465083,33.0172263 29.8018052,33.8709489 32.2325891,33.8709489 Z M32.2325891,30.0986861 C31.1061283,30.0986861 30.0587173,29.6618978 29.287981,28.9272993 C28.5172447,28.1927007 28.0429454,27.160292 28.0429454,25.9690511 C28.0429454,24.7778102 28.5172447,23.7454015 29.287981,23.0108029 C30.0587173,22.2762044 31.1061283,21.8394161 32.2325891,21.8394161 C33.3590499,21.8394161 34.4064608,22.2762044 35.1969596,23.0108029 C35.967696,23.7454015 36.4419952,24.7778102 36.4419952,25.9690511 C36.4419952,27.160292 35.967696,28.1927007 35.1969596,28.9272993 C34.4064608,29.6618978 33.3590499,30.0986861 32.2325891,30.0986861 Z M46.2738242,33.8709489 C48.0919715,33.8709489 49.5543943,33.3547445 50.5425178,32.4613139 C51.5306413,31.5877372 52.0444656,30.3170803 52.0444656,28.7883212 C52.0444656,26.5051095 50.9180048,25.1748905 48.3884086,24.3211679 L47.43981,24.0233577 C47.103848,23.9240876 46.8271734,23.8248175 46.5702613,23.6858394 C46.0564371,23.4475912 45.7007126,23.129927 45.7007126,22.5938686 C45.7007126,21.819562 46.392399,21.3033577 47.400285,21.3033577 C48.1907838,21.3033577 49.0405701,21.6210219 49.8903563,22.3159124 L51.431829,19.2782482 C49.9496437,18.4840876 48.2895962,18.0671533 46.8074109,18.0671533 C45.2264133,18.0671533 43.9220903,18.5635036 43.0525416,19.4172263 C42.1632304,20.2908029 41.6494062,21.5018978 41.6494062,22.9909489 C41.6494062,24.48 42.1632304,25.3932847 42.9142043,26.0286131 C43.6651781,26.6639416 44.6533017,27.0014599 45.6611876,27.3191241 C46.5109739,27.6169343 47.0840855,27.8154745 47.4595724,28.0934307 C47.8350594,28.3713869 47.9733967,28.6890511 47.9733967,29.1456934 C47.9733967,29.880292 47.3607601,30.5751825 46.095962,30.5751825 C44.9892637,30.5751825 43.8628029,30.0788321 42.6968171,29.0464234 L41.0367696,32.1833577 C42.6375297,33.3150365 44.3963895,33.8709489 46.2738242,33.8709489 Z M57.1135392,33.4540146 L57.1135392,28.4905109 L59.4059857,28.4905109 C62.7458432,28.4905109 64.583753,26.6639416 64.583753,23.4872993 C64.583753,20.3106569 62.7458432,18.4840876 59.4059857,18.4840876 L53.240095,18.4840876 L53.240095,33.4540146 L57.1135392,33.4540146 Z M58.3980998,25.3535766 L57.1135392,25.3535766 L57.1135392,21.6210219 L58.3980998,21.6210219 C59.8209976,21.6210219 60.5324466,22.2364964 60.5324466,23.4872993 C60.5324466,24.7381022 59.8209976,25.3535766 58.3980998,25.3535766 Z M73.8819952,33.4540146 L73.8819952,30.1582482 L69.2773397,30.1582482 L69.2773397,27.5772263 L73.6250831,27.5772263 L73.6250831,24.2814599 L69.2773397,24.2814599 L69.2773397,21.779854 L73.8819952,21.779854 L73.8819952,18.4840876 L65.4038955,18.4840876 L65.4038955,33.4540146 L73.8819952,33.4540146 Z M79.3067933,33.4540146 L79.3067933,27.6963504 L83.0023753,33.4540146 L87.8244181,33.4540146 L83.1407126,27.3191241 C85.2750594,26.8227737 86.3817577,25.3932847 86.3817577,23.110073 C86.3817577,21.8394161 85.9667458,20.7077372 85.176247,19.8540146 C84.3659857,19.000292 83.1209501,18.4840876 81.4609026,18.4840876 L75.4333492,18.4840876 L75.4333492,33.4540146 L79.3067933,33.4540146 Z M80.0380048,25.1748905 L79.3067933,25.1748905 L79.3067933,21.4820438 L80.0380048,21.4820438 C81.559715,21.4820438 82.4095012,22.1372263 82.4095012,23.3284672 C82.4095012,24.519708 81.559715,25.1748905 80.0380048,25.1748905 Z M95.5021378,33.8709489 C97.8933967,33.8709489 99.9882185,33.0172263 101.450641,31.5877372 C102.913064,30.1582482 103.76285,28.1927007 103.76285,25.9690511 C103.76285,23.7454015 102.913064,21.779854 101.450641,20.350365 C99.9882185,18.9208759 97.8933967,18.0671533 95.5021378,18.0671533 C93.0713539,18.0671533 91.016057,18.9208759 89.5733967,20.350365 C88.1307363,21.779854 87.2611876,23.7454015 87.2611876,25.9690511 C87.2611876,28.1927007 88.1307363,30.1582482 89.5733967,31.5877372 C91.016057,33.0172263 93.0713539,33.8709489 95.5021378,33.8709489 Z M95.5021378,30.0986861 C94.375677,30.0986861 93.328266,29.6618978 92.5575297,28.9272993 C91.7867933,28.1927007 91.3124941,27.160292 91.3124941,25.9690511 C91.3124941,24.7778102 91.7867933,23.7454015 92.5575297,23.0108029 C93.328266,22.2762044 94.375677,21.8394161 95.5021378,21.8394161 C96.6285986,21.8394161 97.6760095,22.2762044 98.4665083,23.0108029 C99.2372447,23.7454015 99.7115439,24.7778102 99.7115439,25.9690511 C99.7115439,27.160292 99.2372447,28.1927007 98.4665083,28.9272993 C97.6760095,29.6618978 96.6285986,30.0986861 95.5021378,30.0986861 Z" id="shape"></path>
            </g>
        </g>
    </g>
</svg>