<?xml version="1.0" encoding="UTF-8"?>
<svg width="74px" height="24px" viewBox="0 0 74 24" version="1.1" xmlns="http://www.w3.org/2000/svg" xmlns:xlink="http://www.w3.org/1999/xlink">
    <title>branding/two-lines-beige</title>
    <g id="Page-1" stroke="none" stroke-width="1" fill="none" fill-rule="evenodd">
        <g id="Group" fill="#D5D6CC" fill-rule="nonzero">
            <g id="branding/two-lines-beige">
                <path d="M12.3924088,11.3518248 L12.3924088,3.11124088 L14.6487591,3.11124088 L14.6487591,0.784817518 L7.38919708,0.784817518 L7.38919708,3.11124088 L9.64554745,3.11124088 L9.64554745,11.3518248 L12.3924088,11.3518248 Z M17.7389781,11.3518248 L17.7389781,6.99328467 L21.7051095,6.99328467 L21.7051095,11.3518248 L24.4519708,11.3518248 L24.4519708,0.784817518 L21.7051095,0.784817518 L21.7051095,4.86306569 L17.7389781,4.86306569 L17.7389781,0.784817518 L14.9921168,0.784817518 L14.9921168,11.3518248 L17.7389781,11.3518248 Z M31.8166423,0.224233577 L31.8166423,0 L25.8043796,0 L25.8043796,0.224233577 L31.8166423,0.224233577 Z M31.8026277,11.3518248 L31.8026277,9.02540146 L28.5372263,9.02540146 L28.5372263,7.20350365 L31.620438,7.20350365 L31.620438,4.87708029 L28.5372263,4.87708029 L28.5372263,3.11124088 L31.8026277,3.11124088 L31.8026277,0.784817518 L25.790365,0.784817518 L25.790365,11.3518248 L31.8026277,11.3518248 Z M40.4286131,0.224233577 L40.4286131,0 L34.4163504,0 L34.4163504,0.224233577 L40.4286131,0.224233577 Z M34.8227737,11.3518248 L35.4534307,9.51591241 L39.3775182,9.51591241 L40.0081752,11.3518248 L42.9372263,11.3518248 L38.9150365,0.784817518 L35.9159124,0.784817518 L31.8937226,11.3518248 L34.8227737,11.3518248 Z M38.6487591,7.42773723 L36.1821898,7.42773723 L37.4154745,3.91007299 L38.6487591,7.42773723 Z M47.2887591,11.3518248 L47.2887591,3.11124088 L49.5451095,3.11124088 L49.5451095,0.784817518 L42.2855474,0.784817518 L42.2855474,3.11124088 L44.5418978,3.11124088 L44.5418978,11.3518248 L47.2887591,11.3518248 Z M52.6353285,11.3518248 L52.6353285,7.28759124 L55.2560584,11.3518248 L58.6756204,11.3518248 L55.3541606,7.02131387 C56.8677372,6.67094891 57.6525547,5.66189781 57.6525547,4.05021898 C57.6525547,3.15328467 57.3582482,2.35445255 56.7976642,1.75182482 C56.2230657,1.14919708 55.340146,0.784817518 54.1629197,0.784817518 L49.8884672,0.784817518 L49.8884672,11.3518248 L52.6353285,11.3518248 Z M53.1538686,5.50773723 L52.6353285,5.50773723 L52.6353285,2.9010219 L53.1538686,2.9010219 C54.2329927,2.9010219 54.8356204,3.36350365 54.8356204,4.20437956 C54.8356204,5.04525547 54.2329927,5.50773723 53.1538686,5.50773723 Z M64.9611679,11.3518248 L64.9611679,9.02540146 L61.6957664,9.02540146 L61.6957664,7.20350365 L64.7789781,7.20350365 L64.7789781,4.87708029 L61.6957664,4.87708029 L61.6957664,3.11124088 L64.9611679,3.11124088 L64.9611679,0.784817518 L58.9489051,0.784817518 L58.9489051,11.3518248 L64.9611679,11.3518248 Z M2.74686131,23.6145985 L2.74686131,20.1109489 L4.37255474,20.1109489 C6.7410219,20.1109489 8.04437956,18.8216058 8.04437956,16.5792701 C8.04437956,14.3369343 6.7410219,13.0475912 4.37255474,13.0475912 L6.97057983e-14,13.0475912 L6.97057983e-14,23.6145985 L2.74686131,23.6145985 Z M3.65781022,17.8966423 L2.74686131,17.8966423 L2.74686131,15.2618978 L3.65781022,15.2618978 C4.66686131,15.2618978 5.17138686,15.6963504 5.17138686,16.5792701 C5.17138686,17.4621898 4.66686131,17.8966423 3.65781022,17.8966423 Z M11.3728467,23.6145985 L11.3728467,19.550365 L13.9935766,23.6145985 L17.4131387,23.6145985 L14.0916788,19.2840876 C15.6052555,18.9337226 16.390073,17.9246715 16.390073,16.3129927 C16.390073,15.4160584 16.0957664,14.6172263 15.5351825,14.0145985 C14.9605839,13.4119708 14.0776642,13.0475912 12.900438,13.0475912 L8.6259854,13.0475912 L8.6259854,23.6145985 L11.3728467,23.6145985 Z M11.8913869,17.7705109 L11.3728467,17.7705109 L11.3728467,15.1637956 L11.8913869,15.1637956 C12.9705109,15.1637956 13.5731387,15.6262774 13.5731387,16.4671533 C13.5731387,17.3080292 12.9705109,17.7705109 11.8913869,17.7705109 Z M22.8578102,23.9089051 C24.5535766,23.9089051 26.0391241,23.3062774 27.0762044,22.2972263 C28.1132847,21.2881752 28.7159124,19.9007299 28.7159124,18.3310949 C28.7159124,16.7614599 28.1132847,15.3740146 27.0762044,14.3649635 C26.0391241,13.3559124 24.5535766,12.7532847 22.8578102,12.7532847 C21.1340146,12.7532847 19.6764964,13.3559124 18.6534307,14.3649635 C17.630365,15.3740146 17.0137226,16.7614599 17.0137226,18.3310949 C17.0137226,19.9007299 17.630365,21.2881752 18.6534307,22.2972263 C19.6764964,23.3062774 21.1340146,23.9089051 22.8578102,23.9089051 Z M22.8578102,21.2461314 C22.0589781,21.2461314 21.3162044,20.9378102 20.769635,20.4192701 C20.2230657,19.9007299 19.8867153,19.1719708 19.8867153,18.3310949 C19.8867153,17.490219 20.2230657,16.7614599 20.769635,16.2429197 C21.3162044,15.7243796 22.0589781,15.4160584 22.8578102,15.4160584 C23.6566423,15.4160584 24.3994161,15.7243796 24.96,16.2429197 C25.5065693,16.7614599 25.8429197,17.490219 25.8429197,18.3310949 C25.8429197,19.1719708 25.5065693,19.9007299 24.96,20.4192701 C24.3994161,20.9378102 23.6566423,21.2461314 22.8578102,21.2461314 Z M32.8151825,23.9089051 C34.1045255,23.9089051 35.1416058,23.5445255 35.8423358,22.9138686 C36.5430657,22.2972263 36.9074453,21.400292 36.9074453,20.3211679 C36.9074453,18.7094891 36.1086131,17.7705109 34.3147445,17.1678832 L33.6420438,16.9576642 C33.4037956,16.8875912 33.2075912,16.8175182 33.0254015,16.7194161 C32.6610219,16.5512409 32.4087591,16.3270073 32.4087591,15.9486131 C32.4087591,15.4020438 32.8992701,15.0376642 33.6140146,15.0376642 C34.1745985,15.0376642 34.7772263,15.2618978 35.379854,15.7524088 L36.4729927,13.6081752 C35.4218978,13.0475912 34.2446715,12.7532847 33.1935766,12.7532847 C32.0724088,12.7532847 31.1474453,13.1036496 30.5308029,13.7062774 C29.900146,14.3229197 29.5357664,15.1778102 29.5357664,16.2289051 C29.5357664,17.28 29.900146,17.9246715 30.4327007,18.3731387 C30.9652555,18.8216058 31.6659854,19.059854 32.3807299,19.2840876 C32.9833577,19.4943066 33.389781,19.6344526 33.6560584,19.8306569 C33.9223358,20.0268613 34.020438,20.2510949 34.020438,20.5734307 C34.020438,21.0919708 33.5859854,21.5824818 32.6890511,21.5824818 C31.9042336,21.5824818 31.1054015,21.2321168 30.2785401,20.5033577 L29.1013139,22.7176642 C30.2364964,23.5164964 31.4837956,23.9089051 32.8151825,23.9089051 Z M40.5021898,23.6145985 L40.5021898,20.1109489 L42.1278832,20.1109489 C44.4963504,20.1109489 45.799708,18.8216058 45.799708,16.5792701 C45.799708,14.3369343 44.4963504,13.0475912 42.1278832,13.0475912 L37.7553285,13.0475912 L37.7553285,23.6145985 L40.5021898,23.6145985 Z M41.4131387,17.8966423 L40.5021898,17.8966423 L40.5021898,15.2618978 L41.4131387,15.2618978 C42.4221898,15.2618978 42.9267153,15.6963504 42.9267153,16.5792701 C42.9267153,17.4621898 42.4221898,17.8966423 41.4131387,17.8966423 Z M52.3935766,23.6145985 L52.3935766,21.2881752 L49.1281752,21.2881752 L49.1281752,19.4662774 L52.2113869,19.4662774 L52.2113869,17.139854 L49.1281752,17.139854 L49.1281752,15.3740146 L52.3935766,15.3740146 L52.3935766,13.0475912 L46.3813139,13.0475912 L46.3813139,23.6145985 L52.3935766,23.6145985 Z M56.2405839,23.6145985 L56.2405839,19.550365 L58.8613139,23.6145985 L62.2808759,23.6145985 L58.9594161,19.2840876 C60.4729927,18.9337226 61.2578102,17.9246715 61.2578102,16.3129927 C61.2578102,15.4160584 60.9635036,14.6172263 60.4029197,14.0145985 C59.8283212,13.4119708 58.9454015,13.0475912 57.7681752,13.0475912 L53.4937226,13.0475912 L53.4937226,23.6145985 L56.2405839,23.6145985 Z M56.7591241,17.7705109 L56.2405839,17.7705109 L56.2405839,15.1637956 L56.7591241,15.1637956 C57.8382482,15.1637956 58.4408759,15.6262774 58.4408759,16.4671533 C58.4408759,17.3080292 57.8382482,17.7705109 56.7591241,17.7705109 Z M67.7255474,23.9089051 C69.4213139,23.9089051 70.9068613,23.3062774 71.9439416,22.2972263 C72.9810219,21.2881752 73.5836496,19.9007299 73.5836496,18.3310949 C73.5836496,16.7614599 72.9810219,15.3740146 71.9439416,14.3649635 C70.9068613,13.3559124 69.4213139,12.7532847 67.7255474,12.7532847 C66.0017518,12.7532847 64.5442336,13.3559124 63.5211679,14.3649635 C62.4981022,15.3740146 61.8814599,16.7614599 61.8814599,18.3310949 C61.8814599,19.9007299 62.4981022,21.2881752 63.5211679,22.2972263 C64.5442336,23.3062774 66.0017518,23.9089051 67.7255474,23.9089051 Z M67.7255474,21.2461314 C66.9267153,21.2461314 66.1839416,20.9378102 65.6373723,20.4192701 C65.0908029,19.9007299 64.7544526,19.1719708 64.7544526,18.3310949 C64.7544526,17.490219 65.0908029,16.7614599 65.6373723,16.2429197 C66.1839416,15.7243796 66.9267153,15.4160584 67.7255474,15.4160584 C68.5243796,15.4160584 69.2671533,15.7243796 69.8277372,16.2429197 C70.3743066,16.7614599 70.7106569,17.490219 70.7106569,18.3310949 C70.7106569,19.1719708 70.3743066,19.9007299 69.8277372,20.4192701 C69.2671533,20.9378102 68.5243796,21.2461314 67.7255474,21.2461314 Z" id="shape"></path>
            </g>
        </g>
    </g>
</svg>